<?xml version="1.0" encoding="utf-8"?><!-- Uploaded to: SVG Repo, www.svgrepo.com, Generator: SVG Repo Mixer Tools -->
<svg width="800px" height="800px" viewBox="0 0 400 400" fill="none" xmlns="http://www.w3.org/2000/svg">
<path d="M53 215.822C150.791 208.444 249.026 205.771 347 209.539" stroke="#000000" stroke-opacity="0.9" stroke-width="16" stroke-linecap="round" stroke-linejoin="round"/>
<path d="M59.2812 228.385C64.5633 258.767 62.6532 303.043 61.1661 340.206" stroke="#000000" stroke-opacity="0.9" stroke-width="16" stroke-linecap="round" stroke-linejoin="round"/>
<path d="M333.188 213.31C335.155 255.514 335.072 297.906 335.072 340.207" stroke="#000000" stroke-opacity="0.9" stroke-width="16" stroke-linecap="round" stroke-linejoin="round"/>
<path d="M146.203 154.856C120.849 176.226 98.4779 189.746 79.3652 212.682" stroke="#000000" stroke-opacity="0.9" stroke-width="16" stroke-linecap="round" stroke-linejoin="round"/>
<path d="M146.198 154.856C145.267 168.216 144.692 194.795 146.198 207.841" stroke="#000000" stroke-opacity="0.9" stroke-width="16" stroke-linecap="round" stroke-linejoin="round"/>
<path d="M151.751 208.282C172.258 194.1 194.457 172.806 213.826 158.654" stroke="#000000" stroke-opacity="0.9" stroke-width="16" stroke-linecap="round" stroke-linejoin="round"/>
<path d="M219.063 154.856C219.063 172.117 221.335 192.661 221.986 208.284" stroke="#000000" stroke-opacity="0.9" stroke-width="16" stroke-linecap="round" stroke-linejoin="round"/>
<path d="M259.05 61.9126C261.499 110.036 257.793 157.784 257.793 205.77" stroke="#000000" stroke-opacity="0.9" stroke-width="16" stroke-linecap="round" stroke-linejoin="round"/>
<path d="M281.039 70.0786C282.227 117.616 287.316 165.424 289.207 212.681" stroke="#000000" stroke-opacity="0.9" stroke-width="16" stroke-linecap="round" stroke-linejoin="round"/>
<path d="M264.711 59.3993C270.011 58.0064 275.6 60.6558 281.043 61.2841" stroke="#000000" stroke-opacity="0.9" stroke-width="16" stroke-linecap="round" stroke-linejoin="round"/>
<path d="M270.992 83.2712C272.919 83.3935 274.761 82.4335 276.646 82.0146" stroke="#000000" stroke-opacity="0.9" stroke-width="16" stroke-linecap="round" stroke-linejoin="round"/>
<path d="M108.289 244.091C177.425 244.057 246.933 243.463 316.224 243.463" stroke="#000000" stroke-opacity="0.9" stroke-width="16" stroke-linecap="round" stroke-linejoin="round"/>
</svg>